{
	"asset":{
		"generator":"Khronos glTF Blender I/O v4.1.36",
		"version":"2.0"
	},
	"scene":0,
	"scenes":[
		{
			"name":"Scene",
			"nodes":[
				0
			]
		}
	],
	"nodes":[
		{
			"mesh":0,
			"name":"Teapot",
			"scale":[
				10,
				10,
				10
			]
		}
	],
	"materials":[
		{
			"doubleSided":true,
			"name":"Material.002",
			"pbrMetallicRoughness":{
				"baseColorFactor":[
					0.8002276420593262,
					0,
					0.003320260439068079,
					1
				],
				"metallicFactor":0,
				"roughnessFactor":0.5
			}
		}
	],
	"meshes":[
		{
			"name":"Teapot.001",
			"primitives":[
				{
					"attributes":{
						"POSITION":0,
						"NORMAL":1,
						"TEXCOORD_0":2
					},
					"indices":3,
					"material":0
				}
			]
		}
	],
	"accessors":[
		{
			"bufferView":0,
			"componentType":5126,
			"count":5759,
			"max":[
				3.3942089080810547,
				1.428279995918274,
				2
			],
			"min":[
				-3.0398330688476562,
				-1.7217199802398682,
				-2
			],
			"type":"VEC3"
		},
		{
			"bufferView":1,
			"componentType":5126,
			"count":5759,
			"type":"VEC3"
		},
		{
			"bufferView":2,
			"componentType":5126,
			"count":5759,
			"type":"VEC2"
		},
		{
			"bufferView":3,
			"componentType":5123,
			"count":27384,
			"type":"SCALAR"
		}
	],
	"bufferViews":[
		{
			"buffer":0,
			"byteLength":69108,
			"byteOffset":0,
			"target":34962
		},
		{
			"buffer":0,
			"byteLength":69108,
			"byteOffset":69108,
			"target":34962
		},
		{
			"buffer":0,
			"byteLength":46072,
			"byteOffset":138216,
			"target":34962
		},
		{
			"buffer":0,
			"byteLength":54768,
			"byteOffset":184288,
			"target":34963
		}
	],
	"buffers":[
		{
			"byteLength":239056,
			"uri":"teapot2.bin"
		}
	]
}
